External Loads File
version=1
nRows=39
nColumns=13
Range=5.000000e-03-10 seconds
endheader
time 	forceRightX 	forceRightY 	forceRightZ 	pointRightX 	pointRightY 	pointRightZ 	forceLeftX 	forceLeftY 	forceLeftZ 	pointLeftX 	pointLeftY 	pointLeftZ 		
2.505000 -56.899354 602.197447 -0.000000 0.418664 0.208683 -0.124563 25.083525 -136.517701 -0.000000 0.194813 0.435116 -0.363071
2.510000 -48.646229 582.686469 -0.000000 0.415638 0.204209 -0.124590 20.236367 -134.815485 -0.000000 0.198308 0.439637 -0.362965
2.515000 -39.857574 561.670261 -0.000000 0.412445 0.199797 -0.124607 15.673398 -132.199453 -0.000000 0.202367 0.444066 -0.362920
2.520000 -31.061769 539.158606 -0.000000 0.409113 0.195623 -0.124697 11.567399 -128.654444 -0.000000 0.206775 0.448398 -0.363429
2.525000 -23.833002 515.154051 -0.000000 0.405723 0.191571 -0.124759 8.282579 -124.210975 -0.000000 0.210327 0.452556 -0.363578
2.530000 -16.433956 489.851992 -0.000000 0.402242 0.187529 -0.124743 5.304173 -118.987311 -0.000000 0.214296 0.456435 -0.363404
2.535000 -8.957572 463.321629 -0.000000 0.398532 0.183746 -0.124813 2.485224 -113.046272 -0.000000 0.218474 0.460292 -0.363644
2.540000 -1.811117 435.646057 -0.000000 0.394745 0.180115 -0.124798 -0.273111 -106.425847 -0.000000 0.222720 0.463978 -0.363763
2.545000 4.968808 406.950957 -0.000000 0.390898 0.176616 -0.124772 -3.148650 -99.130749 -0.000000 0.226994 0.467564 -0.363865
2.550000 11.472626 377.382934 -0.000000 0.386846 0.173210 -0.124739 -6.302462 -91.129177 -0.000000 0.231379 0.470850 -0.363994
2.555000 17.351931 347.104927 -0.000000 0.382738 0.170127 -0.124706 -9.730303 -82.383143 -0.000000 0.235767 0.473948 -0.364152
2.560000 23.039424 316.236812 -0.000000 0.378414 0.167145 -0.124712 -13.557574 -72.840254 -0.000000 0.240288 0.477032 -0.364329
2.565000 28.168424 284.931770 -0.000000 0.374049 0.164268 -0.124700 -17.660302 -62.480377 -0.000000 0.244911 0.479753 -0.364490
2.570000 32.973735 253.308154 -0.000000 0.369479 0.161578 -0.124715 -21.996737 -51.283356 -0.000000 0.249732 0.482356 -0.364928
2.575000 37.036234 221.556589 -0.000000 0.364811 0.159138 -0.124759 -26.348337 -39.310806 -0.000000 0.254375 0.484691 -0.364855
2.580000 40.472154 189.816315 -0.000000 0.360031 0.156942 -0.124696 -30.605226 -26.631113 -0.000000 0.258974 0.486626 -0.365030
2.585000 43.429149 158.204131 -0.000000 0.355064 0.154910 -0.124743 -34.664455 -13.321771 -0.000000 0.263600 0.488536 -0.365292
2.590000 45.739829 126.885367 -0.000000 0.350017 0.153071 -0.124726 -38.413105 0.477686 -0.000000 0.268175 0.490253 -0.365484
2.595000 47.381932 95.957517 -0.000000 0.344944 0.151486 -0.124698 -41.811883 14.646237 -0.000000 0.272702 0.491764 -0.365657
2.600000 48.432640 65.426502 -0.000000 0.339688 0.150137 -0.124701 -44.853525 29.120107 -0.000000 0.277226 0.492999 -0.365790
2.605000 48.904815 35.311203 -0.000000 0.334375 0.149045 -0.124679 -47.588203 43.832225 -0.000000 0.281669 0.493995 -0.365997
2.610000 48.912434 5.558277 -0.000000 0.328940 0.148290 -0.124774 -50.066443 58.819370 -0.000000 0.286198 0.494714 -0.366174
2.615000 48.529939 -23.772212 -0.000000 0.323479 0.147695 -0.124870 -52.453415 74.079384 -0.000000 0.290494 0.495235 -0.366463
2.620000 47.783206 -52.637553 -0.000000 0.317746 0.147434 -0.124870 -54.774723 89.746256 -0.000000 0.294800 0.495484 -0.367021
2.625000 46.680448 -80.734741 -0.000000 0.312148 0.147417 -0.124980 -57.219304 105.802519 -0.000000 0.299129 0.495468 -0.367361
2.630000 45.224581 -107.666617 -0.000000 0.306628 0.147574 -0.125248 -59.923866 122.222601 -0.000000 0.303339 0.495200 -0.367543
2.635000 43.314556 -132.978616 -0.000000 0.301094 0.147892 -0.125388 -62.882772 139.008298 -0.000000 0.307598 0.494742 -0.367781
2.640000 41.044648 -156.102593 -0.000000 0.295563 0.148405 -0.125528 -66.252232 156.079743 -0.000000 0.311658 0.494057 -0.368054
2.645000 38.444230 -176.539729 -0.000000 0.290102 0.149037 -0.125612 -70.048760 173.445926 -0.000000 0.315690 0.493068 -0.368333
2.650000 35.473102 -193.882469 -0.000000 0.284696 0.149853 -0.125649 -74.171118 191.154395 -0.000000 0.319977 0.491776 -0.368459
2.655000 32.509500 -207.755240 -0.000000 0.279221 0.150843 -0.125625 -78.871010 209.058541 -0.000000 0.324044 0.490358 -0.368667
2.660000 29.634258 -217.976637 -0.000000 0.273720 0.152026 -0.125562 -84.045247 227.055940 -0.000000 0.328162 0.488652 -0.368874
2.665000 27.083504 -224.477651 -0.000000 0.268157 0.153550 -0.125483 -89.703813 244.884069 -0.000000 0.332235 0.486778 -0.369052
2.670000 24.807370 -227.361781 -0.000000 0.262335 0.155198 -0.125116 -95.546428 262.296785 -0.000000 0.336397 0.484552 -0.369259
2.675000 23.033314 -226.822089 -0.000000 0.256713 0.157251 -0.125056 -101.593407 278.862518 -0.000000 0.340878 0.482028 -0.369301
2.680000 21.992470 -223.175859 -0.000000 0.251137 0.159492 -0.125061 -107.945397 294.079039 -0.000000 0.345344 0.479277 -0.369477
2.685000 21.697563 -216.881274 -0.000000 0.245602 0.161837 -0.124993 -114.533232 307.516905 -0.000000 0.349720 0.476001 -0.369627
2.690000 22.028464 -208.498937 -0.000000 0.240092 0.164503 -0.124862 -121.202639 318.871865 -0.000000 0.354244 0.472899 -0.369741
2.695000 22.864696 -198.625488 -0.000000 0.234501 0.167368 -0.124786 -127.858905 327.983345 -0.000000 0.358752 0.469538 -0.369837
